<svg width="50" height="50" viewBox="0 0 50 50" fill="none" xmlns="http://www.w3.org/2000/svg">
<path d="M49.9999 19.5402H0V9.48271C0 9.00664 0.386034 8.62061 0.862108 8.62061H49.1379C49.614 8.62061 50 9.00664 50 9.48271L49.9999 19.5402Z" fill="#FAB446"/>
<path d="M49.1378 41.3795H0.862108C0.386034 41.3795 0 40.9934 0 40.5174V30.46H49.9999V40.5174C49.9999 40.9935 49.6139 41.3795 49.1378 41.3795Z" fill="#73AF00"/>
<path d="M49.9999 19.54H0V30.459H49.9999V19.54Z" fill="#F5F5F5"/>
<path d="M24.9998 29.6339C22.4447 29.6339 20.3662 27.5554 20.3662 25.0003C20.3662 22.4452 22.4447 20.3667 24.9998 20.3667C27.5549 20.3667 29.6334 22.4452 29.6334 25.0003C29.6334 27.5554 27.5549 29.6339 24.9998 29.6339ZM24.9998 21.2287C22.9199 21.2287 21.2282 22.9204 21.2282 25.0003C21.2282 27.0802 22.9199 28.7719 24.9998 28.7719C27.0797 28.7719 28.7714 27.0802 28.7714 25.0003C28.7714 22.9204 27.0797 21.2287 24.9998 21.2287Z" fill="#41479B"/>
<path d="M24.9999 25.5257C25.29 25.5257 25.5252 25.2905 25.5252 25.0004C25.5252 24.7103 25.29 24.4751 24.9999 24.4751C24.7098 24.4751 24.4746 24.7103 24.4746 25.0004C24.4746 25.2905 24.7098 25.5257 24.9999 25.5257Z" fill="#41479B"/>
<path d="M24.9994 25.079L23.6644 25.2138L20.7969 25.079V24.9214L23.6644 24.7866L24.9994 24.9214V25.079Z" fill="#41479B"/>
<path d="M25 25.079L26.335 25.2138L29.2025 25.079V24.9214L26.335 24.7866L25 24.9214V25.079Z" fill="#41479B"/>
<path d="M24.9209 25.0004L24.7861 23.6654L24.9209 20.7979H25.0785L25.2133 23.6654L25.0785 25.0004H24.9209Z" fill="#41479B"/>
<path d="M24.9209 25.0005L24.7861 26.3354L24.9209 29.203H25.0785L25.2133 26.3354L25.0785 25.0005H24.9209Z" fill="#41479B"/>
<path d="M24.9443 25.0561L23.9051 24.2076L21.9727 22.0846L22.0841 21.9731L24.2071 23.9056L25.0557 24.9448L24.9443 25.0561Z" fill="#41479B"/>
<path d="M24.9443 25.0562L25.7929 26.0954L27.9159 28.0278L28.0273 27.9164L26.0949 25.7934L25.0557 24.9448L24.9443 25.0562Z" fill="#41479B"/>
<path d="M24.9443 24.9448L25.7929 23.9056L27.9159 21.9731L28.0273 22.0846L26.0949 24.2076L25.0557 25.0561L24.9443 24.9448Z" fill="#41479B"/>
<path d="M24.9443 24.9448L23.9051 25.7934L21.9727 27.9164L22.0841 28.0278L24.2071 26.0954L25.0557 25.0562L24.9443 24.9448Z" fill="#41479B"/>
<path d="M25.0299 25.0729L23.848 25.7083L21.1473 26.6811L21.0869 26.5355L23.6847 25.3137L24.9695 24.9272L25.0299 25.0729Z" fill="#41479B"/>
<path d="M25.0301 25.0732L26.3149 24.6868L28.9127 23.4649L28.8523 23.3193L26.1516 24.2922L24.9697 24.9275L25.0301 25.0732Z" fill="#41479B"/>
<path d="M24.9266 25.0304L24.2912 23.8485L23.3184 21.1478L23.464 21.0874L24.6858 23.6852L25.0723 24.97L24.9266 25.0304Z" fill="#41479B"/>
<path d="M24.9268 25.0306L25.3132 26.3154L26.5351 28.9132L26.6807 28.8528L25.7078 26.152L25.0725 24.9702L24.9268 25.0306Z" fill="#41479B"/>
<path d="M24.9695 25.0732L23.6847 24.6868L21.0869 23.4649L21.1473 23.3193L23.848 24.2922L25.0299 24.9275L24.9695 25.0732Z" fill="#41479B"/>
<path d="M24.9697 25.0729L26.1516 25.7083L28.8523 26.6811L28.9127 26.5355L26.3149 25.3137L25.0301 24.9272L24.9697 25.0729Z" fill="#41479B"/>
<path d="M24.9268 24.97L25.3132 23.6852L26.5351 21.0874L26.6807 21.1478L25.7078 23.8485L25.0725 25.0304L24.9268 24.97Z" fill="#41479B"/>
<path d="M24.9266 24.9702L24.2912 26.152L23.3184 28.8528L23.464 28.9132L24.6858 26.3154L25.0723 25.0306L24.9266 24.9702Z" fill="#41479B"/>
<path d="M24.9996 25.7087C25.391 25.7087 25.7082 25.3914 25.7082 25.0001C25.7082 24.6088 25.391 24.2915 24.9996 24.2915C24.6083 24.2915 24.291 24.6088 24.291 25.0001C24.291 25.3914 24.6083 25.7087 24.9996 25.7087Z" fill="#F5F5F5"/>
<path d="M25.0001 25.425C25.2348 25.425 25.425 25.2348 25.425 25.0001C25.425 24.7654 25.2348 24.5752 25.0001 24.5752C24.7654 24.5752 24.5752 24.7654 24.5752 25.0001C24.5752 25.2348 24.7654 25.425 25.0001 25.425Z" fill="#41479B"/>
</svg>
